<?xml version="1.0" encoding="iso-8859-1"?>
<!-- Generator: Adobe Illustrator 19.0.0, SVG Export Plug-In . SVG Version: 6.00 Build 0)  -->
<svg version="1.1" id="Layer_1" xmlns="http://www.w3.org/2000/svg" xmlns:xlink="http://www.w3.org/1999/xlink" x="0px" y="0px"
	 viewBox="0 0 512 512" style="enable-background:new 0 0 512 512;" xml:space="preserve">
<g>
	<rect x="416.045" y="103.843" style="fill:#C49A6C;" width="88.039" height="304.142"/>
	<rect x="255.962" y="103.843" style="fill:#C49A6C;" width="80.042" height="304.142"/>
	<rect x="79.884" y="103.843" style="fill:#C49A6C;" width="88.039" height="304.142"/>
</g>
<g>
	<rect x="336.004" y="103.843" style="fill:#A97C50;" width="80.042" height="304.142"/>
	<rect x="167.923" y="103.843" style="fill:#A97C50;" width="88.039" height="304.142"/>
	<rect x="7.847" y="103.843" style="fill:#A97C50;" width="72.035" height="304.142"/>
</g>
<g>
	<polygon style="fill:#8B5E3C;" points="504.084,504.032 7.847,504.032 7.847,407.986 79.881,407.986 167.923,407.986 
		255.965,407.986 336.004,407.986 416.042,407.986 504.084,407.986 	"/>
	<polygon style="fill:#8B5E3C;" points="504.084,103.84 416.042,103.84 336.004,103.84 255.965,103.84 167.923,103.84 
		79.881,103.84 7.847,103.84 7.847,7.794 504.084,7.794 	"/>
</g>
<path style="fill:#231F20;" d="M0,0v512h512V0H0z M15.762,111.809h56.272v288.383H15.762V111.809z M496.238,432.207h-80.161v15.762
	h80.161v48.268H15.762V447.97h296.264v-15.762H15.762v-16.253h480.475V432.207z M87.797,400.191V111.809h72.279v288.383H87.797z
	 M175.839,400.191V111.809h72.279v288.383H175.839z M263.881,400.191V111.809h64.276v288.383H263.881z M343.919,400.191V111.809
	h64.276v288.383H343.919z M496.238,400.191h-72.279V111.809h72.279V400.191z M496.238,64.031H199.973v15.762h296.264v16.252H15.762
	V79.794h80.161V64.031H15.762V15.762h480.475V64.031z"/>
<rect x="336.035" y="432.207" style="fill:#FFFFFF;" width="16.007" height="15.762"/>
<rect x="376.061" y="432.207" style="fill:#231F20;" width="16.007" height="15.762"/>
<g>
	<rect x="159.958" y="64.031" style="fill:#FFFFFF;" width="16.007" height="15.762"/>
	<rect x="119.931" y="64.031" style="fill:#FFFFFF;" width="16.007" height="15.762"/>
</g>
<g>
	<rect x="31.893" y="32.016" style="fill:#231F20;" width="16.007" height="15.762"/>
	<rect x="464.1" y="32.016" style="fill:#231F20;" width="16.007" height="15.762"/>
	<rect x="31.893" y="464.226" style="fill:#231F20;" width="16.007" height="15.762"/>
	<rect x="464.1" y="464.226" style="fill:#231F20;" width="16.007" height="15.762"/>
</g>
<g>
</g>
<g>
</g>
<g>
</g>
<g>
</g>
<g>
</g>
<g>
</g>
<g>
</g>
<g>
</g>
<g>
</g>
<g>
</g>
<g>
</g>
<g>
</g>
<g>
</g>
<g>
</g>
<g>
</g>
</svg>
